<?xml version="1.0" encoding="UTF-8"?>
<svg id="Layer_1" xmlns="http://www.w3.org/2000/svg" version="1.1" viewBox="0 0 294.99 294.99">
  <!-- Generator: Adobe Illustrator 29.7.1, SVG Export Plug-In . SVG Version: 2.1.1 Build 8)  -->
  <defs>
    <style>
      .st0 {
        fill: #fff;
      }

      .st1 {
        fill: #819d9f;
      }
    </style>
  </defs>
  <path class="st1" d="M275.59,0c.31.46.27.97.29,1.5.91,30.24-.71,60.63,0,90.89.05.75-.28,1.44-.3,2.17-.84,27.95-5.86,53.3-17.24,78.84-32.14,72.15-102.48,118.88-181.69,121.16-18.09.52-38.25.63-56.32,0-.52-.02-1.04.03-1.5-.29v-106.23C20.35,85.96,101.91,3.42,203.92,0h71.67Z"/>
  <g>
    <path class="st0" d="M110.08,155.89c-.13.08-.26.15-.36.22-4.42,2.89-9.56,4.47-14.72,4.7-4.9.22-9.82-.78-14.18-3.03-7.87-4.06-12.58-11.55-12.93-20.55-1.04-26.67,29.27-45.45,53.63-60.53,5.61-3.47,10.91-6.76,15.24-9.8,17.09-12.02,27.95-24.15,34.17-38.19.13-.28.4-.46.72-.45h.34c.36.02.67.29.73.64.35,2.04-.66,4.8-1.4,6.81l-.09.26c-5.64,15.44-19.96,28.65-30.99,37.01-4.22,3.2-9.62,6.79-15.34,10.58-19.2,12.75-43.09,28.61-47.5,45.87-1.86,7.26-.47,14.03,3.82,18.57,4.36,4.63,11.19,6.45,18.72,5,1.03-.2,2.55-.89,3.9-1.5,1.59-.72,2.6-1.16,3.27-1.19h0c1.07-.04,4.41,2.59,4.58,3.23.33,1.23-.89,1.94-1.61,2.36h0Z"/>
    <path class="st0" d="M189.23,171.23c-6.63,8.04-15.88,12.46-24.82,16.73-7.52,3.59-15.29,7.3-21.17,13.12-11.22,11.1-6.47,20.61-.96,31.62,1.44,2.88,2.94,5.87,4.17,8.97,1.18,2.97,2.15,6.05,3.09,9.02.11.34-.04.71-.35.89l-.86.49c-.11.06-.23.1-.35.1-.08,0-.17,0-.25-.03-.2-.06-.37-.2-.46-.38-2.01-3.9-4.48-7.67-6.86-11.31-2.07-3.16-4.21-6.43-6.06-9.8-7.25-13.2-6.54-24.18,2.25-34.55,5.71-6.75,14.67-11.2,23.32-15.5,12.67-6.3,25.78-12.82,28.83-26.61,1.67-7.52.5-15.78-3.67-25.98-.11-.28-.05-.6.15-.81l.77-.82c.15-.16.35-.25.58-.24.22,0,.42.11.56.27,11.8,13.98,12.63,31.99,2.08,44.8v.02Z"/>
    <path class="st0" d="M182.6,123.45c-.63,3.38-.77,6.62-.91,9.75-.29,6.53-.56,12.69-4.97,19.41-6.17,9.39-15.49,13.49-25.52,13.94-9.04.4-18.66-2.17-27.05-6.52-25.32-13.12-30.98-34.04-25.52-47.92,5.35-13.61,19.79-20.52,30.96-23.92.24-.07.5-.02.7.13.2.16.3.4.29.65l-.1,1.3c-.02.28-.19.52-.44.64-6.09,2.83-20.7,10.77-24.94,23.46-2.03,6.08-1.33,12.4,2.08,18.77,5.94,11.09,20.83,21.46,34.64,24.11,6.5,1.25,15.82,1.42,23.29-4.87,7.21-6.07,7.44-12.83,7.71-20.65.1-3.07.21-6.24.77-9.5,2.4-14.01,14.45-27.2,25.08-38.83,3.15-3.45,6.13-6.71,8.7-9.82,8-9.67,14.03-18.65,18.43-27.43.03-.06.09-.22.17-.43,1.29-3.35,2.02-4.52,2.89-4.66.38-.06.74.08,1,.4h0c1.16,1.42-1.63,9.45-2.2,11.04-2.82,7.88-8.46,17.43-16.76,28.37-2.31,3.04-5.02,6.25-7.89,9.64-8.59,10.14-18.33,21.64-20.43,32.96l.02-.02Z"/>
    <path class="st0" d="M204.56,122.74c-.44.02-.76-.05-.93-.22-.12-.12-.19-.28-.21-.45-.07-.76,0-1.17.6-1.78.52-.52,1.75-1.16,3.56-2.07.89-.45,1.73-.87,2.19-1.17,9.96-6.34,16.94-11.95,21.97-17.66.98-1.11,1.89-2.36,2.76-3.57,1.51-2.07,3.06-4.22,5.06-5.81.13-.1.29-.15.46-.17,2.21-.05,3.61.56,4.19,1.81,1.43,3.13-3.41,8.73-4.4,9.82-5.1,5.64-13.16,11.4-18.89,14.6-.14.08-12.62,6.5-16.37,6.67h0Z"/>
    <path class="st0" d="M234.86,145.1c-1.1,1.24-3.49,1.95-7.1,2.12h-.08c-4.66.21-9.96-.51-16.2-2.2-.22-.06-.4-.21-.49-.41-.1-.2-.1-.44,0-.64l.6-1.31c.15-.32.51-.51.85-.43,4.36.93,8.87.26,13.24-.39l.54-.08c.6-.09,1.53-.32,2.52-.57,1.9-.48,3.21-.8,3.96-.74,1.15.07,2.77,1.37,2.86,2.61.05.76-.19,1.46-.7,2.04h0Z"/>
    <path class="st0" d="M245.26,124.09c-4.44,4.41-15.28,7.78-21.47,8.98-.08,0-5.01.9-8.82,1.07-2.09.09-3.84-.03-4.26-.64-.06-.09-.11-.2-.12-.31-.2-1.21.73-1.64,1.23-1.88,1.36-.64,3.53-1.15,5.63-1.64,1.48-.35,3-.7,4.12-1.08,4.63-1.57,9.27-3.59,12.73-5.54.72-.41,1.89-1.24,3.12-2.12,2.42-1.73,4.08-2.88,5.03-3.14,1.72-.46,3.18,0,3.9,1.25.85,1.47.4,3.59-1.07,5.05h-.02Z"/>
    <path class="st0" d="M107.11,150.3h0c-.67.03-1.68.47-3.27,1.19-1.34.61-2.87,1.3-3.9,1.5-7.53,1.46-14.36-.37-18.72-5-4.28-4.54-5.67-11.31-3.82-18.57,4.41-17.26,28.3-33.12,47.5-45.87,5.71-3.8,11.11-7.38,15.34-10.58,11.02-8.36,25.35-21.56,30.99-37.01l.09-.26c.74-2.01,1.75-4.77,1.4-6.81-.06-.36-.37-.62-.73-.63h-.34c-.32-.01-.6.16-.72.44-6.22,14.04-17.08,26.18-34.17,38.19-4.34,3.05-9.63,6.33-15.24,9.8-24.35,15.08-54.66,33.86-53.63,60.53.35,9,5.06,16.49,12.93,20.55,4.36,2.25,9.28,3.24,14.18,3.03,5.16-.23,10.3-1.81,14.72-4.7.11-.07.23-.14.36-.22.73-.42,1.94-1.13,1.61-2.36-.17-.64-3.51-3.28-4.58-3.23h0Z"/>
    <path class="st0" d="M227.68,52.48c.57-1.6,3.36-9.62,2.2-11.04h0c-.26-.31-.62-.46-1-.4-.88.14-1.6,1.32-2.89,4.66-.08.22-.14.38-.17.43-4.4,8.78-10.43,17.75-18.43,27.43-2.57,3.11-5.55,6.37-8.7,9.82-10.63,11.64-22.68,24.82-25.08,38.83-.56,3.26-.67,6.43-.77,9.5-.27,7.82-.5,14.58-7.71,20.65-7.47,6.29-16.79,6.12-23.29,4.87-13.81-2.65-28.7-13.02-34.64-24.11-3.41-6.37-4.11-12.69-2.08-18.77,4.23-12.68,18.85-20.63,24.94-23.46.25-.12.42-.36.44-.64l.1-1.3c.02-.25-.09-.49-.29-.65s-.46-.21-.7-.13c-11.17,3.4-25.61,10.31-30.96,23.92-5.46,13.88.2,34.81,25.52,47.92,8.4,4.35,18.01,6.92,27.05,6.52,10.02-.45,19.34-4.55,25.52-13.94,4.41-6.71,4.68-12.88,4.97-19.41.14-3.13.28-6.37.91-9.75,2.1-11.32,11.84-22.81,20.43-32.96,2.87-3.39,5.59-6.6,7.89-9.64,8.29-10.95,13.93-20.49,16.76-28.37l-.02.02Z"/>
    <path class="st0" d="M89.73,220.11c-11.63-12.64-26.11-28.38-12.46-43.45,9.75-10.77,23.69-8.1,37.16-5.51,4.34.83,8.43,1.62,12.37,1.96,7.46.65,17.75.59,24.28-1.53.08-.03.17-.05.27-.07.5-.13,1.81-.46,1.64-1.89-.02-.2-.13-.39-.29-.51-.16-.13-.36-.18-.57-.16-7.82.98-16.27.49-26.58-1.57-2.39-.48-4.88-1.04-7.42-1.61-18.55-4.17-39.57-8.91-51.21,10.8-11.83,20.03,5.22,38.01,18.92,52.46,2.91,3.07,5.66,5.97,7.99,8.73,8.25,9.76,14.71,19.09,19.53,28.2,1.92-.52,3.83-1.08,5.73-1.66-5.66-15.46-15.62-28.48-24.44-38.74-1.47-1.71-3.14-3.53-4.91-5.45h-.01Z"/>
    <path class="st0" d="M186.59,126.15c-.22,0-.43.08-.58.24l-.77.82c-.21.22-.27.54-.15.81,4.17,10.2,5.34,18.46,3.67,25.98-3.05,13.79-16.16,20.3-28.83,26.61-8.66,4.31-17.61,8.76-23.32,15.5-8.79,10.37-9.5,21.35-2.25,34.55,1.85,3.37,3.99,6.63,6.06,9.8,2.38,3.64,4.85,7.41,6.86,11.31.09.19.26.32.46.38.08.02.17.03.25.03.12,0,.24-.04.35-.1l.86-.49c.31-.18.46-.55.35-.89-.94-2.98-1.9-6.05-3.09-9.02-1.24-3.1-2.73-6.08-4.17-8.97-5.51-11.01-10.27-20.52.96-31.62,5.88-5.82,13.65-9.53,21.17-13.12,8.94-4.27,18.2-8.69,24.82-16.73,10.55-12.81,9.72-30.82-2.08-44.8-.14-.17-.34-.27-.56-.27v-.02Z"/>
    <path class="st0" d="M166.99,196.59c.11-.3.42-.97.79-1.78,2.02-4.38,2.26-5.19,1.73-5.77-.1-.1-.22-.18-.36-.22-.69-.2-1.18.05-1.5.21-.07.03-.14.07-.22.1-4.64,1.91-6.51,3.8-8.68,8.77-5.99,13.74.64,25.33,7.04,36.54,1.25,2.18,2.53,4.42,3.7,6.66,2.4-1.53,4.76-3.1,7.1-4.73-1.44-3.02-2.96-5.78-4.44-8.44-5.56-10-9.95-17.9-5.17-31.35h.01Z"/>
    <path class="st0" d="M239.83,101.47c.99-1.09,5.83-6.69,4.4-9.82-.58-1.26-1.99-1.87-4.19-1.81-.17.02-.33.06-.46.17-2,1.59-3.56,3.74-5.06,5.81-.88,1.21-1.79,2.46-2.76,3.57-5.03,5.7-12.01,11.32-21.97,17.66-.46.29-1.3.72-2.19,1.17-1.81.91-3.04,1.55-3.56,2.07-.6.61-.67,1.02-.6,1.78.02.17.09.33.21.45.16.17.48.24.93.22,3.75-.17,16.24-6.59,16.37-6.67,5.73-3.2,13.8-8.96,18.89-14.6h0Z"/>
    <path class="st0" d="M242.43,117.79c-.95.26-2.6,1.41-5.03,3.14-1.23.88-2.4,1.71-3.12,2.12-3.46,1.95-8.1,3.97-12.73,5.54-1.12.38-2.64.74-4.12,1.08-2.1.49-4.27,1-5.63,1.64-.5.23-1.43.67-1.23,1.88.02.11.06.22.12.31.42.61,2.17.73,4.26.64,3.81-.17,8.75-1.06,8.82-1.07,6.2-1.2,17.03-4.57,21.47-8.98,1.47-1.46,1.92-3.58,1.07-5.05-.72-1.25-2.18-1.71-3.9-1.25h.02Z"/>
    <path class="st0" d="M232.7,140.45c-.76-.05-2.06.26-3.96.74-.99.25-1.92.48-2.52.57l-.54.08c-4.37.65-8.88,1.32-13.24.39-.35-.08-.7.1-.85.43l-.6,1.31c-.09.2-.09.44,0,.64s.27.35.49.41c6.24,1.69,11.54,2.41,16.2,2.2h.08c3.61-.17,6-.89,7.1-2.12.51-.58.75-1.28.7-2.04-.09-1.24-1.71-2.54-2.86-2.61h0Z"/>
  </g>
</svg>